<svg width="20" height="35" viewBox="0 0 20 35" fill="none" xmlns="http://www.w3.org/2000/svg">
<path d="M0.691512 18.3891L16.9461 33.8766C17.2173 34.1352 17.5776 34.2794 17.9523 34.2794C18.3271 34.2794 18.6874 34.1352 18.9586 33.8766L18.9761 33.8591C19.108 33.7338 19.2131 33.5829 19.2849 33.4157C19.3567 33.2485 19.3937 33.0684 19.3937 32.8864C19.3937 32.7045 19.3567 32.5244 19.2849 32.3572C19.2131 32.1899 19.108 32.0391 18.9761 31.9137L3.66943 17.3304L18.9761 2.75289C19.108 2.62755 19.2131 2.47668 19.2849 2.30946C19.3567 2.14224 19.3937 1.96217 19.3937 1.78019C19.3937 1.59821 19.3567 1.41813 19.2849 1.2509C19.2131 1.08368 19.108 0.932816 18.9761 0.807476L18.9586 0.789974C18.6874 0.531429 18.3271 0.387196 17.9523 0.387196C17.5776 0.387196 17.2173 0.531429 16.9461 0.789974L0.691512 16.2775C0.548559 16.4137 0.434753 16.5775 0.356993 16.759C0.279232 16.9405 0.239136 17.1359 0.239136 17.3333C0.239136 17.5308 0.279232 17.7261 0.356993 17.9076C0.434753 18.0891 0.548559 18.2529 0.691512 18.3891Z" fill="#1C5EDD"/>
</svg>
