<svg width="143" height="143" viewBox="0 0 143 143" fill="none" xmlns="http://www.w3.org/2000/svg">
<mask id="mask0_35_455" style="mask-type:alpha" maskUnits="userSpaceOnUse" x="17" y="17" width="109" height="109">
<path d="M17.875 65.5417C17.875 43.0728 17.875 31.8354 24.8582 24.8582C31.8413 17.881 43.0728 17.875 65.5417 17.875H77.4583C99.9272 17.875 111.165 17.875 118.142 24.8582C125.119 31.8413 125.125 43.0728 125.125 65.5417V77.4583C125.125 99.9272 125.125 111.165 118.142 118.142C111.159 125.119 99.9272 125.125 77.4583 125.125H65.5417C43.0728 125.125 31.8354 125.125 24.8582 118.142C17.881 111.159 17.875 99.9272 17.875 77.4583V65.5417Z" fill="#273B4A"/>
</mask>
<g mask="url(#mask0_35_455)">
<path d="M32.2348 75.0154L31.3232 75.927C25.484 81.7661 22.5644 84.6857 20.8127 88.2786C20.2049 89.5259 19.7084 90.8169 19.3231 92.1515C18.2208 95.9887 18.4413 100.118 18.8762 108.37L20.8544 145.979H125.125V117.719C125.125 109.073 125.125 104.747 123.701 100.821C123.314 99.7463 122.85 98.7009 122.313 97.6928C120.347 94.0046 117.129 91.1148 110.694 85.3292L109.419 84.1793C104.08 79.3709 101.411 76.9697 98.3604 76.2904C96.4451 75.8619 94.4537 75.9131 92.5629 76.4394C89.554 77.2795 87.0098 79.8237 81.9333 84.9002C78.1617 88.6719 76.2788 90.5547 74.2589 90.8109C73.0035 90.9684 71.7305 90.7221 70.6244 90.1078C68.8369 89.1187 67.7703 86.6341 65.6432 81.6589C61.1089 71.0829 58.8447 65.7978 54.948 63.8435C52.9857 62.8596 50.7897 62.4369 48.6024 62.622C44.2587 62.9914 40.2547 67.0014 32.2348 75.0154Z" fill="#272626" stroke="#272626"/>
</g>
<path d="M17.875 65.5417C17.875 43.0728 17.875 31.8354 24.8582 24.8582C31.8413 17.881 43.0728 17.875 65.5417 17.875H77.4583C99.9272 17.875 111.165 17.875 118.142 24.8582C125.119 31.8413 125.125 43.0728 125.125 65.5417V77.4583C125.125 99.9272 125.125 111.165 118.142 118.142C111.159 125.119 99.9272 125.125 77.4583 125.125H65.5417C43.0728 125.125 31.8354 125.125 24.8582 118.142C17.881 111.159 17.875 99.9272 17.875 77.4583V65.5417Z" stroke="#272626" stroke-width="1.2"/>
<path d="M98.3125 53.625C103.249 53.625 107.25 49.6235 107.25 44.6875C107.25 39.7515 103.249 35.75 98.3125 35.75C93.3765 35.75 89.375 39.7515 89.375 44.6875C89.375 49.6235 93.3765 53.625 98.3125 53.625Z" fill="#272626"/>
</svg>
